<svg xmlns="http://www.w3.org/2000/svg" width="16" height="16" viewBox="0 0 128 128">
  <!-- Dark circular background -->
  <circle cx="64" cy="64" r="62" fill="#0a0a0f"/>
  <circle cx="64" cy="64" r="60" fill="none" stroke="#ff4444" stroke-width="2.5" opacity="0.6"/>

  <!-- Person silhouette (head + shoulders) -->
  <circle cx="64" cy="38" r="14" fill="#ff4444" opacity="0.85"/>
  <path d="M36,90 Q36,62 64,62 Q92,62 92,90 L92,100 L36,100 Z" fill="#ff4444" opacity="0.85"/>

  <!-- Price tag overlay on the body -->
  <rect x="46" y="68" width="36" height="26" rx="3" fill="#0a0a0f" stroke="#ffcc00" stroke-width="2"/>

  <!-- Dollar sign on the tag -->
  <text x="64" y="88" font-family="Arial,Helvetica,sans-serif" font-size="22" font-weight="bold" fill="#ffcc00" text-anchor="middle" dominant-baseline="auto">$</text>

  <!-- Barcode lines at bottom of silhouette -->
  <line x1="42" y1="98" x2="42" y2="108" stroke="#ffcc00" stroke-width="1.5" opacity="0.7"/>
  <line x1="46" y1="98" x2="46" y2="110" stroke="#ffcc00" stroke-width="2" opacity="0.7"/>
  <line x1="50" y1="98" x2="50" y2="106" stroke="#ffcc00" stroke-width="1" opacity="0.7"/>
  <line x1="53" y1="98" x2="53" y2="110" stroke="#ffcc00" stroke-width="1.5" opacity="0.7"/>
  <line x1="57" y1="98" x2="57" y2="108" stroke="#ffcc00" stroke-width="2" opacity="0.7"/>
  <line x1="61" y1="98" x2="61" y2="106" stroke="#ffcc00" stroke-width="1" opacity="0.7"/>
  <line x1="64" y1="98" x2="64" y2="110" stroke="#ffcc00" stroke-width="1.5" opacity="0.7"/>
  <line x1="68" y1="98" x2="68" y2="108" stroke="#ffcc00" stroke-width="2" opacity="0.7"/>
  <line x1="72" y1="98" x2="72" y2="106" stroke="#ffcc00" stroke-width="1" opacity="0.7"/>
  <line x1="75" y1="98" x2="75" y2="110" stroke="#ffcc00" stroke-width="1.5" opacity="0.7"/>
  <line x1="79" y1="98" x2="79" y2="108" stroke="#ffcc00" stroke-width="2" opacity="0.7"/>
  <line x1="82" y1="98" x2="82" y2="106" stroke="#ffcc00" stroke-width="1" opacity="0.7"/>
  <line x1="86" y1="98" x2="86" y2="110" stroke="#ffcc00" stroke-width="1.5" opacity="0.7"/>
</svg>
